<svg xmlns="http://www.w3.org/2000/svg" xmlns:xlink="http://www.w3.org/1999/xlink" viewBox="0 0 665.04 768"><defs><style>.cls-1{fill:none;}.cls-2{clip-path:url(#clip-path);}.cls-3{fill:#f7f7ff;}.cls-4{fill:url(#linear-gradient);}.cls-5{fill:#fff;}.cls-6{fill:url(#linear-gradient-2);}</style><clipPath id="clip-path"><path class="cls-1" d="M0,211.36a33.5,33.5,0,0,1,16.75-29l299-172.64a33.5,33.5,0,0,1,33.5,0l299,172.64a33.49,33.49,0,0,1,16.75,29V556.64a33.49,33.49,0,0,1-16.75,29l-299,172.64a33.5,33.5,0,0,1-33.5,0l-299-172.64A33.5,33.5,0,0,1,0,556.64Z"/></clipPath><linearGradient id="linear-gradient" x1="-350.08" y1="767.98" x2="-349.08" y2="767.98" gradientTransform="matrix(0.06, 684.5, 684.5, -0.06, -525163.53, 239838.62)" gradientUnits="userSpaceOnUse"><stop offset="0" stop-color="#fdd4ff" stop-opacity="0.94"/><stop offset="1" stop-color="#bfbdff"/></linearGradient><linearGradient id="linear-gradient-2" x1="-350.08" y1="767.95" x2="-349.08" y2="767.95" gradientTransform="translate(445818.22 216919.08) rotate(91.43) scale(587.14)" gradientUnits="userSpaceOnUse"><stop offset="0" stop-color="#f4e9ff"/><stop offset="1" stop-color="#dfdfff"/></linearGradient></defs><title>Asset 2HivenHouseLogo</title><g id="Layer_2" data-name="Layer 2"><g id="Layer_1-2" data-name="Layer 1"><g class="cls-2"><path class="cls-3" d="M474.43,686,332.54,768,0,576V192L332.54,0,665,192V576L553.71,640.2V509.12l-79.28,45.34Z"/><path class="cls-4" d="M474.43,686,332.54,768V384L665,192V576L553.71,640.2V509.12l-79.28,45.34Z"/><path class="cls-5" d="M0,192l332.5,192L665,192,332.54,0Z"/><path class="cls-6" d="M332.51,767.95,0,576V192L332.53,384Z"/></g></g></g></svg>