<svg xmlns="http://www.w3.org/2000/svg" viewBox="0 0 346.41 106.92"><defs><style>.cls-1{fill:none;}.cls-2{fill:#dce1fe;}</style></defs><title>Asset 1hivenlogotext</title><g id="Layer_2" data-name="Layer 2"><g id="Layer_1-2" data-name="Layer 1"><g id="Layer_1-2-2" data-name="Layer 1-2"><path class="cls-1" d="M227.13,47.14c-8.31,0-14.63,5-16.83,13.21h32.8C241.33,52.25,235.58,47.14,227.13,47.14Z"/><path class="cls-2" d="M43.17,30A25.62,25.62,0,0,0,22.79,39.4V6.67c0-3.27-1.85-5.11-5.11-5.11H5.11C1.85,1.56,0,3.41,0,6.67v93.43c0,3.27,1.85,5.11,5.11,5.11H17.68c3.27,0,5.11-1.85,5.11-5.11V65.46C22.79,55.38,29,50,36.35,50c6.75,0,11.86,5.4,11.86,12.71v37.42c0,3.27,1.85,5.11,5.11,5.11H65.89c3.27,0,5.11-1.85,5.11-5.11v-41C71,41.68,59.28,30,43.17,30Z"/><rect class="cls-2" x="83.43" y="31.67" width="22.79" height="73.55" rx="5.11" ry="5.11"/><path class="cls-2" d="M94.85,0C87.47,0,81.79,5.4,81.79,12.42s5.68,12.42,13.06,12.42,13.06-5.33,13.06-12.42S102.24,0,94.85,0Z"/><path class="cls-2" d="M180.91,31.67H167.77c-3,0-4.83,1.42-5.68,4.33L149.6,79.31,137.17,36c-.85-2.91-2.7-4.33-5.68-4.33H118.36c-3.69,0-5.4,2.27-4.19,5.82L135.61,101a5.55,5.55,0,0,0,5.82,4.19h16.4a5.55,5.55,0,0,0,5.82-4.19L185.1,37.49C186.31,33.94,184.6,31.67,180.91,31.67Z"/><path class="cls-2" d="M227.41,30c-22.93,0-40.33,16.9-40.33,38.48s17,38.48,42.39,38.48a42.5,42.5,0,0,0,30.25-11.79c2.41-2.27,2.27-4.83.14-7.24l-3.05-3.41c-2.13-2.41-4.47-2.49-7.17-.64-5.68,4-12,5.89-19.88,5.89-10.93,0-18.18-5.68-19.81-15h50.69c3.05,0,5.18-1.49,5.47-4.54a21.72,21.72,0,0,0,.21-3C266.32,46.58,249.92,30,227.41,30ZM210.3,60.35c2.2-8.24,8.52-13.21,16.83-13.21s14.2,5.11,16,13.21Z"/><path class="cls-2" d="M318.58,30A25.62,25.62,0,0,0,298.2,39.4V36.78c0-3.27-1.85-5.11-5.11-5.11H280.52c-3.27,0-5.11,1.85-5.11,5.11v63.33c0,3.27,1.85,5.11,5.11,5.11h12.57c3.27,0,5.11-1.85,5.11-5.11V65.46c0-10.08,6.18-15.48,13.56-15.48,6.6,0,11.86,6.11,11.86,12.71v37.42c0,3.27,1.85,5.11,5.11,5.11H341.3c3.27,0,5.11-1.85,5.11-5.11v-41C346.41,41.68,334.69,30,318.58,30Z"/></g></g></g></svg>